<?xml version="1.0" encoding="UTF-8"?>
<svg version="1.1" xmlns="http://www.w3.org/2000/svg" width="256" height="256">
<path d="M0 0 C1.48512125 1.4393783 2.88378404 2.94083387 4.29345703 4.45385742 C8.40449341 9.0346145 8.40449341 9.0346145 13.95703125 11.29833984 C17.49302015 11.23591066 20.68210432 10.59162143 24.140625 9.82421875 C36.42727536 7.20024787 50.48064987 10.25140519 61 17 C71.92757313 24.34640828 79.79884084 34.0843405 83 47 C83.52277832 50.33327033 83.85379111 53.62988502 84 57 C84.804375 57.20625 85.60875 57.4125 86.4375 57.625 C95.68628504 61.19470651 104.12401141 67.79085701 108.3515625 76.91796875 C109.33412983 79.59352079 110.2059452 82.26342695 111 85 C111.33 85.99 111.66 86.98 112 88 C113.2871226 101.77487486 111.99969575 114.49791987 103.6875 125.96875 C97.41442477 133.51967389 90.29124385 138.37491492 80.35434723 139.36222458 C75.94137326 139.55593385 71.53024136 139.51851735 67.11425781 139.48583984 C65.42123115 139.48798913 63.72820595 139.4918719 62.03518677 139.49734497 C57.46045759 139.50699299 52.88612208 139.49178936 48.31144047 139.47143888 C43.50538189 139.45378154 38.69933392 139.45739473 33.89324951 139.4581604 C25.82004271 139.45629044 17.74698672 139.43897256 9.67382812 139.41162109 C0.37054557 139.38021629 -8.93257175 139.36962369 -18.2359035 139.3710922 C-28.17767218 139.37244902 -38.11937806 139.3585296 -48.06112766 139.34019899 C-50.907868 139.33595837 -53.75459805 139.33451962 -56.60134125 139.33372116 C-61.09614611 139.33169444 -65.59081523 139.31934146 -70.0855751 139.29938889 C-71.72450299 139.2936052 -73.36344651 139.29107448 -75.00238419 139.29224396 C-93.20474931 139.30030911 -109.51000012 138.321956 -123.13671875 124.89453125 C-127.4057154 120.30989714 -130.81424695 115.89202995 -133 110 C-133.29777344 109.19820313 -133.59554687 108.39640625 -133.90234375 107.5703125 C-135.96042186 100.87444546 -136.30896512 94.32761648 -136.375 87.375 C-136.38885742 86.50464111 -136.40271484 85.63428223 -136.41699219 84.73754883 C-136.33107442 72.74862811 -132.25601572 63.80881021 -124.1875 55.02734375 C-115.74059417 47.02038093 -105.22524849 43.26893321 -94 41 C-93.9175 40.05125 -93.835 39.1025 -93.75 38.125 C-91.61615069 23.76477086 -81.5837218 9.8303396 -70.4375 0.9609375 C-50.75500855 -12.48495055 -19.97071029 -13.49227612 0 0 Z " fill="#2F66ED" transform="translate(140,63)"/>
<path d="M0 0 C1.48512125 1.4393783 2.88378404 2.94083387 4.29345703 4.45385742 C8.40449341 9.0346145 8.40449341 9.0346145 13.95703125 11.29833984 C17.49302015 11.23591066 20.68210432 10.59162143 24.140625 9.82421875 C36.42727536 7.20024787 50.48064987 10.25140519 61 17 C71.92757313 24.34640828 79.79884084 34.0843405 83 47 C83.52277832 50.33327033 83.85379111 53.62988502 84 57 C84.804375 57.20625 85.60875 57.4125 86.4375 57.625 C95.68628504 61.19470651 104.12401141 67.79085701 108.3515625 76.91796875 C109.33412983 79.59352079 110.2059452 82.26342695 111 85 C111.33 85.99 111.66 86.98 112 88 C113.2871226 101.77487486 111.99969575 114.49791987 103.6875 125.96875 C97.41442477 133.51967389 90.29124385 138.37491492 80.35434723 139.36222458 C75.94137326 139.55593385 71.53024136 139.51851735 67.11425781 139.48583984 C65.42123115 139.48798913 63.72820595 139.4918719 62.03518677 139.49734497 C57.46045759 139.50699299 52.88612208 139.49178936 48.31144047 139.47143888 C43.50538189 139.45378154 38.69933392 139.45739473 33.89324951 139.4581604 C25.82004271 139.45629044 17.74698672 139.43897256 9.67382812 139.41162109 C0.37054557 139.38021629 -8.93257175 139.36962369 -18.2359035 139.3710922 C-28.17767218 139.37244902 -38.11937806 139.3585296 -48.06112766 139.34019899 C-50.907868 139.33595837 -53.75459805 139.33451962 -56.60134125 139.33372116 C-61.09614611 139.33169444 -65.59081523 139.31934146 -70.0855751 139.29938889 C-71.72450299 139.2936052 -73.36344651 139.29107448 -75.00238419 139.29224396 C-93.20474931 139.30030911 -109.51000012 138.321956 -123.13671875 124.89453125 C-127.4057154 120.30989714 -130.81424695 115.89202995 -133 110 C-133.29777344 109.19820313 -133.59554687 108.39640625 -133.90234375 107.5703125 C-135.96042186 100.87444546 -136.30896512 94.32761648 -136.375 87.375 C-136.38885742 86.50464111 -136.40271484 85.63428223 -136.41699219 84.73754883 C-136.33107442 72.74862811 -132.25601572 63.80881021 -124.1875 55.02734375 C-115.74059417 47.02038093 -105.22524849 43.26893321 -94 41 C-93.9175 40.05125 -93.835 39.1025 -93.75 38.125 C-91.61615069 23.76477086 -81.5837218 9.8303396 -70.4375 0.9609375 C-50.75500855 -12.48495055 -19.97071029 -13.49227612 0 0 Z M-74 19 C-79.43751379 27.27829747 -84.00219482 35.71246052 -85.5703125 45.59375 C-87 49 -87 49 -90.5625 50.56640625 C-92.03586728 50.92329226 -93.51572471 51.25410797 -95 51.5625 C-106.0191767 54.32711004 -116.09900628 59.0358852 -122.28125 69.08203125 C-127.76901254 79.64597414 -127.26368156 91.64766757 -124.0625 102.875 C-122.74388739 107.02502607 -122.74388739 107.02502607 -121 111 C-120.34 111 -119.68 111 -119 111 C-118.773125 111.556875 -118.54625 112.11375 -118.3125 112.6875 C-114.07145332 120.15982033 -106.07487648 124.76256927 -98 127 C-94.64817111 127.39018733 -91.29922169 127.5007904 -87.92773438 127.60571289 C-86.89085228 127.64295754 -85.85397018 127.6802022 -84.78566742 127.71857548 C-68.9157362 128.23128385 -53.03293401 128.24915464 -37.15625 128.30859375 C-36.29950495 128.31189107 -35.4427599 128.31518839 -34.56005287 128.31858563 C-26.4568061 128.34924542 -18.35355442 128.37587671 -10.25026703 128.39300442 C0.03115 128.41502022 10.31205329 128.45740077 20.59326506 128.52644199 C27.87788706 128.57368239 35.16236987 128.59793459 42.44714022 128.6052013 C46.77887068 128.61014088 51.11001247 128.62507037 55.4415741 128.6649456 C59.50009566 128.70184589 63.55769213 128.71021129 67.61635017 128.69693947 C69.09982578 128.69699329 70.58334326 128.70723795 72.06666374 128.7286911 C79.78370447 128.8343173 85.60198945 128.8994738 91.51311493 123.54434299 C92.003787 123.03470981 92.49445908 122.52507662 93 122 C93.9075 121.13375 94.815 120.2675 95.75 119.375 C102.18691506 110.95246029 102.9533339 100.18111714 102 90 C100.82847321 81.91147994 96.02620859 76.29491754 90 71 C86.78567992 68.96188297 83.531899 67.40340358 80 66 C79.07703125 65.62875 78.1540625 65.2575 77.203125 64.875 C76.47609375 64.58625 75.7490625 64.2975 75 64 C74.91363281 62.96101563 74.82726562 61.92203125 74.73828125 60.8515625 C73.44000224 47.22045151 69.63966572 37.29368391 59 28 C49.89143957 22.1992852 40.76225639 19.61562064 30.0625 19.6875 C28.87889893 19.68834595 28.87889893 19.68834595 27.67138672 19.68920898 C21.8944132 19.78053746 17.38787462 20.86342903 12 23 C7.68212517 22.80534171 5.66912522 19.83064401 2.875 16.8125 C-5.94225186 7.65048901 -15.92964043 2.1390577 -28.83984375 1.56640625 C-30.87232504 1.54939256 -32.90499745 1.54825046 -34.9375 1.5625 C-35.94490234 1.54251953 -36.95230469 1.52253906 -37.99023438 1.50195312 C-52.32233652 1.51116991 -65.00963384 7.87072661 -74 19 Z " fill="#FAFBFE" transform="translate(140,63)"/>
<path d="M0 0 C1.11616699 -0.00137466 2.23233398 -0.00274933 3.38232422 -0.00416565 C4.6022406 -0.00057037 5.82215698 0.0030249 7.07904053 0.00672913 C8.36709595 0.0065831 9.65515137 0.00643707 10.98223877 0.00628662 C14.51082895 0.00599975 18.03938513 0.01187869 21.56796741 0.01886058 C25.25685771 0.02511244 28.94574878 0.02569937 32.63464355 0.02688599 C39.61854661 0.02999389 46.60243401 0.0382 53.58633018 0.04823548 C61.53790189 0.05941339 69.48947435 0.0649113 77.44105196 0.06993091 C93.79662763 0.08038305 110.15218755 0.09797204 126.50775146 0.12025452 C126.50775146 1.77025452 126.50775146 3.42025452 126.50775146 5.12025452 C124.19775146 5.12025452 121.88775146 5.12025452 119.50775146 5.12025452 C119.50775146 5.78025452 119.50775146 6.44025452 119.50775146 7.12025452 C121.48775146 7.12025452 123.46775146 7.12025452 125.50775146 7.12025452 C125.17775146 9.43025452 124.84775146 11.74025452 124.50775146 14.12025452 C122.19775146 14.12025452 119.88775146 14.12025452 117.50775146 14.12025452 C117.50775146 14.78025452 117.50775146 15.44025452 117.50775146 16.12025452 C119.48775146 16.12025452 121.46775146 16.12025452 123.50775146 16.12025452 C123.50775146 16.45025452 123.50775146 16.78025452 123.50775146 17.12025452 C121.52775146 17.12025452 119.54775146 17.12025452 117.50775146 17.12025452 C117.50775146 17.78025452 117.50775146 18.44025452 117.50775146 19.12025452 C119.48775146 19.12025452 121.46775146 19.12025452 123.50775146 19.12025452 C123.50775146 19.45025452 123.50775146 19.78025452 123.50775146 20.12025452 C121.19775146 20.12025452 118.88775146 20.12025452 116.50775146 20.12025452 C116.50775146 20.78025452 116.50775146 21.44025452 116.50775146 22.12025452 C118.48775146 22.12025452 120.46775146 22.12025452 122.50775146 22.12025452 C122.50775146 22.45025452 122.50775146 22.78025452 122.50775146 23.12025452 C120.19775146 23.12025452 117.88775146 23.12025452 115.50775146 23.12025452 C115.50775146 23.78025452 115.50775146 24.44025452 115.50775146 25.12025452 C117.81775146 25.12025452 120.12775146 25.12025452 122.50775146 25.12025452 C122.50775146 25.45025452 122.50775146 25.78025452 122.50775146 26.12025452 C120.19775146 26.45025452 117.88775146 26.78025452 115.50775146 27.12025452 C117.48775146 27.45025452 119.46775146 27.78025452 121.50775146 28.12025452 C121.50775146 28.45025452 121.50775146 28.78025452 121.50775146 29.12025452 C119.19775146 29.12025452 116.88775146 29.12025452 114.50775146 29.12025452 C114.50775146 29.78025452 114.50775146 30.44025452 114.50775146 31.12025452 C116.48775146 31.12025452 118.46775146 31.12025452 120.50775146 31.12025452 C120.50775146 31.45025452 120.50775146 31.78025452 120.50775146 32.12025452 C118.19775146 32.12025452 115.88775146 32.12025452 113.50775146 32.12025452 C113.50775146 32.78025452 113.50775146 33.44025452 113.50775146 34.12025452 C115.81775146 34.12025452 118.12775146 34.12025452 120.50775146 34.12025452 C120.50775146 34.45025452 120.50775146 34.78025452 120.50775146 35.12025452 C109.27564818 37.16245511 97.81190022 35.98505278 86.50775146 35.12025452 C86.50775146 35.78025452 86.50775146 36.44025452 86.50775146 37.12025452 C73.70339429 37.16660256 60.89905709 37.20213634 48.0946331 37.22387886 C42.14897574 37.23431436 36.20337579 37.24846942 30.25775146 37.27113342 C24.51950644 37.29286994 18.78131662 37.30482491 13.0430336 37.310009 C10.85418962 37.31370329 8.66534864 37.32091726 6.47652817 37.33171463 C3.40988391 37.34624012 0.34346758 37.34823199 -2.72320557 37.3473053 C-3.62735703 37.35449585 -4.53150848 37.3616864 -5.46305847 37.36909485 C-10.21247734 37.35357304 -14.02808187 36.96203614 -18.49224854 35.12025452 C-18.49224854 34.46025452 -18.49224854 33.80025452 -18.49224854 33.12025452 C-19.48224854 32.79025452 -20.47224854 32.46025452 -21.49224854 32.12025452 C-24.16712508 26.96864044 -24.25183886 21.78617828 -23.49224854 16.12025452 C-21.4936679 10.67783864 -18.56881414 6.11412654 -13.49224854 3.12025452 C-12.17224854 3.12025452 -10.85224854 3.12025452 -9.49224854 3.12025452 C-9.49224854 2.46025452 -9.49224854 1.80025452 -9.49224854 1.12025452 C-6.26391085 0.16059261 -3.3616834 -0.00319552 0 0 Z " fill="#DEE7FA" transform="translate(76.49224853515625,127.87974548339844)"/>
<path d="M0 0 C1.11616699 -0.00137466 2.23233398 -0.00274933 3.38232422 -0.00416565 C4.6022406 -0.00057037 5.82215698 0.0030249 7.07904053 0.00672913 C8.36709595 0.0065831 9.65515137 0.00643707 10.98223877 0.00628662 C14.51082895 0.00599975 18.03938513 0.01187869 21.56796741 0.01886058 C25.25685771 0.02511244 28.94574878 0.02569937 32.63464355 0.02688599 C39.61854661 0.02999389 46.60243401 0.0382 53.58633018 0.04823548 C61.53790189 0.05941339 69.48947435 0.0649113 77.44105196 0.06993091 C93.79662763 0.08038305 110.15218755 0.09797204 126.50775146 0.12025452 C126.50775146 1.77025452 126.50775146 3.42025452 126.50775146 5.12025452 C124.19775146 5.12025452 121.88775146 5.12025452 119.50775146 5.12025452 C119.50775146 5.78025452 119.50775146 6.44025452 119.50775146 7.12025452 C121.48775146 7.12025452 123.46775146 7.12025452 125.50775146 7.12025452 C125.17775146 9.43025452 124.84775146 11.74025452 124.50775146 14.12025452 C122.19775146 14.12025452 119.88775146 14.12025452 117.50775146 14.12025452 C117.50775146 14.78025452 117.50775146 15.44025452 117.50775146 16.12025452 C119.48775146 16.12025452 121.46775146 16.12025452 123.50775146 16.12025452 C123.50775146 16.45025452 123.50775146 16.78025452 123.50775146 17.12025452 C117.56775146 17.12025452 111.62775146 17.12025452 105.50775146 17.12025452 C105.50775146 16.13025452 105.50775146 15.14025452 105.50775146 14.12025452 C101.21775146 14.45025452 96.92775146 14.78025452 92.50775146 15.12025452 C93.49775146 15.78025452 94.48775146 16.44025452 95.50775146 17.12025452 C84.28775146 17.12025452 73.06775146 17.12025452 61.50775146 17.12025452 C61.50775146 18.11025452 61.50775146 19.10025452 61.50775146 20.12025452 C55.56775146 20.12025452 49.62775146 20.12025452 43.50775146 20.12025452 C43.50775146 19.79025452 43.50775146 19.46025452 43.50775146 19.12025452 C46.14775146 19.12025452 48.78775146 19.12025452 51.50775146 19.12025452 C51.50775146 18.46025452 51.50775146 17.80025452 51.50775146 17.12025452 C35.66775146 17.12025452 19.82775146 17.12025452 3.50775146 17.12025452 C3.50775146 16.46025452 3.50775146 15.80025452 3.50775146 15.12025452 C9.11775146 15.12025452 14.72775146 15.12025452 20.50775146 15.12025452 C20.83775146 14.13025452 21.16775146 13.14025452 21.50775146 12.12025452 C27.44775146 12.12025452 33.38775146 12.12025452 39.50775146 12.12025452 C39.50775146 13.44025452 39.50775146 14.76025452 39.50775146 16.12025452 C41.44850007 15.84407919 41.44850007 15.84407919 43.50775146 15.12025452 C44.16775146 14.13025452 44.82775146 13.14025452 45.50775146 12.12025452 C48.45839294 11.89939812 51.19143377 11.83964462 54.13275146 11.93275452 C54.93454834 11.94628967 55.73634521 11.95982483 56.56243896 11.97377014 C58.54449524 12.009164 60.52620698 12.06297218 62.50775146 12.12025452 C62.50775146 13.44025452 62.50775146 14.76025452 62.50775146 16.12025452 C64.81775146 16.12025452 67.12775146 16.12025452 69.50775146 16.12025452 C69.32212646 15.52212952 69.13650146 14.92400452 68.94525146 14.30775452 C68.50775146 12.12025452 68.50775146 12.12025452 69.50775146 9.12025452 C73.13775146 9.12025452 76.76775146 9.12025452 80.50775146 9.12025452 C80.50775146 10.11025452 80.50775146 11.10025452 80.50775146 12.12025452 C93.37775146 12.61525452 93.37775146 12.61525452 106.50775146 13.12025452 C106.50775146 11.80025452 106.50775146 10.48025452 106.50775146 9.12025452 C104.52775146 8.79025452 102.54775146 8.46025452 100.50775146 8.12025452 C100.50775146 9.11025452 100.50775146 10.10025452 100.50775146 11.12025452 C96.54775146 11.12025452 92.58775146 11.12025452 88.50775146 11.12025452 C88.50775146 10.13025452 88.50775146 9.14025452 88.50775146 8.12025452 C80.25775146 8.12025452 72.00775146 8.12025452 63.50775146 8.12025452 C63.50775146 9.11025452 63.50775146 10.10025452 63.50775146 11.12025452 C57.56775146 11.12025452 51.62775146 11.12025452 45.50775146 11.12025452 C45.83775146 10.46025452 46.16775146 9.80025452 46.50775146 9.12025452 C44.19775146 9.12025452 41.88775146 9.12025452 39.50775146 9.12025452 C39.50775146 9.78025452 39.50775146 10.44025452 39.50775146 11.12025452 C33.56775146 11.12025452 27.62775146 11.12025452 21.50775146 11.12025452 C21.83775146 10.13025452 22.16775146 9.14025452 22.50775146 8.12025452 C19.86775146 8.12025452 17.22775146 8.12025452 14.50775146 8.12025452 C15.00275146 9.60525452 15.00275146 9.60525452 15.50775146 11.12025452 C13.38282006 11.14719027 11.25779234 11.1666208 9.13275146 11.18275452 C7.94939209 11.19435608 6.76603271 11.20595764 5.54681396 11.21791077 C2.50775146 11.12025452 2.50775146 11.12025452 0.50775146 10.12025452 C0.50775146 9.46025452 0.50775146 8.80025452 0.50775146 8.12025452 C-1.47224854 8.12025452 -3.45224854 8.12025452 -5.49224854 8.12025452 C-5.49224854 8.78025452 -5.49224854 9.44025452 -5.49224854 10.12025452 C-8.25676886 11.50251468 -10.53838484 11.21550839 -13.61724854 11.18275452 C-14.71295166 11.17373108 -15.80865479 11.16470764 -16.93756104 11.15541077 C-18.20213135 11.13800842 -18.20213135 11.13800842 -19.49224854 11.12025452 C-18.89672581 8.00521258 -18.56514907 7.19118476 -16.17974854 4.87025452 C-13.49224854 3.12025452 -13.49224854 3.12025452 -9.49224854 3.12025452 C-9.49224854 2.46025452 -9.49224854 1.80025452 -9.49224854 1.12025452 C-6.26391085 0.16059261 -3.3616834 -0.00319552 0 0 Z " fill="#F1F5FD" transform="translate(76.49224853515625,127.87974548339844)"/>
<path d="M0 0 C1.11616699 -0.00137466 2.23233398 -0.00274933 3.38232422 -0.00416565 C4.6022406 -0.00057037 5.82215698 0.0030249 7.07904053 0.00672913 C8.36709595 0.0065831 9.65515137 0.00643707 10.98223877 0.00628662 C14.51082895 0.00599975 18.03938513 0.01187869 21.56796741 0.01886058 C25.25685771 0.02511244 28.94574878 0.02569937 32.63464355 0.02688599 C39.61854661 0.02999389 46.60243401 0.0382 53.58633018 0.04823548 C61.53790189 0.05941339 69.48947435 0.0649113 77.44105196 0.06993091 C93.79662763 0.08038305 110.15218755 0.09797204 126.50775146 0.12025452 C126.50775146 1.77025452 126.50775146 3.42025452 126.50775146 5.12025452 C112.55830825 6.91907056 98.87434376 7.37142829 84.82025146 7.24525452 C82.83523003 7.23518733 80.85020355 7.2260682 78.86517334 7.21791077 C74.07923766 7.19623314 69.29355315 7.16191756 64.50775146 7.12025452 C64.50775146 5.47025452 64.50775146 3.82025452 64.50775146 2.12025452 C57.57775146 1.62525452 57.57775146 1.62525452 50.50775146 1.12025452 C49.84775146 3.10025452 49.18775146 5.08025452 48.50775146 7.12025452 C27.14521638 7.24340882 5.85338701 7.05036913 -15.49224854 6.12025452 C-14.83224854 5.13025452 -14.17224854 4.14025452 -13.49224854 3.12025452 C-12.17224854 3.12025452 -10.85224854 3.12025452 -9.49224854 3.12025452 C-9.49224854 2.46025452 -9.49224854 1.80025452 -9.49224854 1.12025452 C-6.26391085 0.16059261 -3.3616834 -0.00319552 0 0 Z " fill="#A4BDF6" transform="translate(76.49224853515625,127.87974548339844)"/>
<path d="M0 0 C5.61 0 11.22 0 17 0 C17 0.99 17 1.98 17 3 C20.96 3 24.92 3 29 3 C29 3.66 29 4.32 29 5 C30.98 5 32.96 5 35 5 C35 5.33 35 5.66 35 6 C32.69 6 30.38 6 28 6 C28 6.66 28 7.32 28 8 C29.98 8 31.96 8 34 8 C34 8.33 34 8.66 34 9 C31.69 9 29.38 9 27 9 C26.67 9.66 26.34 10.32 26 11 C22.7 11 19.4 11 16 11 C15.34 12.98 14.68 14.96 14 17 C11.69 17 9.38 17 7 17 C7.495 15.515 7.495 15.515 8 14 C-4.21 14 -16.42 14 -29 14 C-29 13.34 -29 12.68 -29 12 C-23.39 12 -17.78 12 -12 12 C-17.28 11.67 -22.56 11.34 -28 11 C-28 9.68 -28 8.36 -28 7 C-33.94 7.495 -33.94 7.495 -40 8 C-40 7.34 -40 6.68 -40 6 C-35.71 6 -31.42 6 -27 6 C-27 5.01 -27 4.02 -27 3 C-11.655 2.505 -11.655 2.505 4 2 C2.68 1.34 1.36 0.68 0 0 Z " fill="#BCCCF7" transform="translate(165,142)"/>
<path d="M0 0 C1.98 0 3.96 0 6 0 C6 0.66 6 1.32 6 2 C10.62 2 15.24 2 20 2 C20 1.34 20 0.68 20 0 C22.64 0 25.28 0 28 0 C28 0.66 28 1.32 28 2 C33.61 2.33 39.22 2.66 45 3 C44.505 1.515 44.505 1.515 44 0 C46.97 0 49.94 0 53 0 C52.67 0.66 52.34 1.32 52 2 C57.61 2.33 63.22 2.66 69 3 C69 2.01 69 1.02 69 0 C77.25 0 85.5 0 94 0 C94 0.99 94 1.98 94 3 C97.96 3 101.92 3 106 3 C106 2.01 106 1.02 106 0 C108.31 0 110.62 0 113 0 C112.67 1.65 112.34 3.3 112 5 C108.04168191 5.02892857 104.08339083 5.04677427 100.125 5.0625 C98.43310547 5.07506836 98.43310547 5.07506836 96.70703125 5.08789062 C95.63066406 5.09111328 94.55429688 5.09433594 93.4453125 5.09765625 C92.45031738 5.10289307 91.45532227 5.10812988 90.43017578 5.11352539 C88 5 88 5 86 4 C86 3.01 86 2.02 86 1 C82.37 1 78.74 1 75 1 C75 3.31 75 5.62 75 8 C72.69 8 70.38 8 68 8 C68 6.68 68 5.36 68 4 C65.20677782 4.08672746 62.41687472 4.19355357 59.625 4.3125 C58.43390625 4.34633789 58.43390625 4.34633789 57.21875 4.38085938 C55.13784419 4.47785075 53.06558668 4.72994825 51 5 C50.34 5.99 49.68 6.98 49 8 C47.68 8 46.36 8 45 8 C45 6.68 45 5.36 45 4 C39.06 4 33.12 4 27 4 C26.67 5.32 26.34 6.64 26 8 C20.39 7.67 14.78 7.34 9 7 C9 7.66 9 8.32 9 9 C17.91 9 26.82 9 36 9 C36 9.66 36 10.32 36 11 C22.14 11 8.28 11 -6 11 C-5.34 8.69 -4.68 6.38 -4 4 C-7.63 4 -11.26 4 -15 4 C-14.67 3.34 -14.34 2.68 -14 2 C-9.38 2 -4.76 2 0 2 C0 1.34 0 0.68 0 0 Z " fill="#8FAAF3" transform="translate(71,136)"/>
<path d="M0 0 C4.95 0 9.9 0 15 0 C14.67 1.98 14.34 3.96 14 6 C15.01457275 5.83701416 16.02914551 5.67402832 17.07446289 5.50610352 C20.71376909 5.03690259 24.14376511 4.88545514 27.80859375 4.90234375 C29.04931641 4.90556641 30.29003906 4.90878906 31.56835938 4.91210938 C32.84517578 4.92048828 34.12199219 4.92886719 35.4375 4.9375 C37.39333008 4.94426758 37.39333008 4.94426758 39.38867188 4.95117188 C42.59249552 4.96290749 45.79622363 4.97932637 49 5 C49.495 7.475 49.495 7.475 50 10 C46.04 10 42.08 10 38 10 C38 9.01 38 8.02 38 7 C29.75 7 21.5 7 13 7 C13 7.99 13 8.98 13 10 C7.06 10 1.12 10 -5 10 C-4.67 9.34 -4.34 8.68 -4 8 C-6.31 8 -8.62 8 -11 8 C-11 8.66 -11 9.32 -11 10 C-16.94 10 -22.88 10 -29 10 C-28.67 9.01 -28.34 8.02 -28 7 C-30.64 7 -33.28 7 -36 7 C-35.505 8.485 -35.505 8.485 -35 10 C-37.12493141 10.02693575 -39.24995912 10.04636628 -41.375 10.0625 C-42.55835937 10.07410156 -43.74171875 10.08570313 -44.9609375 10.09765625 C-48 10 -48 10 -50 9 C-50 8.34 -50 7.68 -50 7 C-51.98 7 -53.96 7 -56 7 C-56 7.66 -56 8.32 -56 9 C-58.76452033 10.38226016 -61.0461363 10.09525387 -64.125 10.0625 C-65.22070312 10.05347656 -66.31640625 10.04445312 -67.4453125 10.03515625 C-68.70988281 10.01775391 -68.70988281 10.01775391 -70 10 C-69.625 8.0625 -69.625 8.0625 -69 6 C-66.46935103 4.73467551 -64.71538717 4.87299662 -61.8828125 4.87060547 C-60.81409912 4.86745331 -59.74538574 4.86430115 -58.64428711 4.86105347 C-57.48292236 4.8630777 -56.32155762 4.86510193 -55.125 4.8671875 C-53.93076416 4.86623077 -52.73652832 4.86527405 -51.50610352 4.86428833 C-48.97070259 4.86360642 -46.43529993 4.86546148 -43.89990234 4.86962891 C-40.04390454 4.87493953 -36.18802523 4.86970379 -32.33203125 4.86328125 C-29.86718724 4.86394276 -27.40234331 4.86522544 -24.9375 4.8671875 C-23.7923291 4.86516327 -22.6471582 4.86313904 -21.46728516 4.86105347 C-14.91674994 4.87992883 -8.50259208 5.1965675 -2 6 C-1.855625 5.38125 -1.71125 4.7625 -1.5625 4.125 C-1 2 -1 2 0 0 Z " fill="#F2F5FD" transform="translate(127,129)"/>
<path d="M0 0 C5.42577894 0.01656726 10.62801602 0.33754172 15.99609375 1.1328125 C15.99609375 1.4628125 15.99609375 1.7928125 15.99609375 2.1328125 C13.68609375 2.4628125 11.37609375 2.7928125 8.99609375 3.1328125 C10.97609375 3.4628125 12.95609375 3.7928125 14.99609375 4.1328125 C14.99609375 4.4628125 14.99609375 4.7928125 14.99609375 5.1328125 C12.68609375 5.1328125 10.37609375 5.1328125 7.99609375 5.1328125 C7.99609375 5.7928125 7.99609375 6.4528125 7.99609375 7.1328125 C9.97609375 7.1328125 11.95609375 7.1328125 13.99609375 7.1328125 C13.99609375 7.4628125 13.99609375 7.7928125 13.99609375 8.1328125 C11.68609375 8.1328125 9.37609375 8.1328125 6.99609375 8.1328125 C6.99609375 8.7928125 6.99609375 9.4528125 6.99609375 10.1328125 C9.30609375 10.1328125 11.61609375 10.1328125 13.99609375 10.1328125 C13.99609375 10.4628125 13.99609375 10.7928125 13.99609375 11.1328125 C2.76399047 13.1750131 -8.6997575 11.99761077 -20.00390625 11.1328125 C-20.00390625 11.7928125 -20.00390625 12.4528125 -20.00390625 13.1328125 C-21.89941647 13.18722906 -23.79538545 13.22579285 -25.69140625 13.2578125 C-26.74714844 13.28101563 -27.80289063 13.30421875 -28.890625 13.328125 C-32.02642484 13.13139979 -34.18035998 12.46338904 -37.00390625 11.1328125 C-37.00390625 10.8028125 -37.00390625 10.4728125 -37.00390625 10.1328125 C-26.44390625 10.1328125 -15.88390625 10.1328125 -5.00390625 10.1328125 C-5.00390625 9.4728125 -5.00390625 8.8128125 -5.00390625 8.1328125 C-6.04546875 8.29652344 -7.08703125 8.46023437 -8.16015625 8.62890625 C-14.25859024 9.3912105 -20.36853261 9.2391366 -26.50390625 9.1953125 C-28.30988281 9.18854492 -28.30988281 9.18854492 -30.15234375 9.18164062 C-33.10291698 9.169932 -36.05338484 9.15353245 -39.00390625 9.1328125 C-39.33390625 8.4728125 -39.66390625 7.8128125 -40.00390625 7.1328125 C-38.91722656 7.05933594 -38.91722656 7.05933594 -37.80859375 6.984375 C-36.35839844 6.87222656 -36.35839844 6.87222656 -34.87890625 6.7578125 C-33.92757812 6.68820313 -32.97625 6.61859375 -31.99609375 6.546875 C-28.96495541 6.22845261 -28.96495541 6.22845261 -26.06640625 5.1015625 C-22.59369519 4.00305186 -19.7607676 3.93369288 -16.12890625 4.0078125 C-14.97648437 4.02585938 -13.8240625 4.04390625 -12.63671875 4.0625 C-11.76789063 4.08570313 -10.8990625 4.10890625 -10.00390625 4.1328125 C-10.00390625 4.7928125 -10.00390625 5.4528125 -10.00390625 6.1328125 C-7.03390625 6.6278125 -7.03390625 6.6278125 -4.00390625 7.1328125 C-3.85953125 6.1634375 -3.71515625 5.1940625 -3.56640625 4.1953125 C-2.83029262 0.18758275 -2.83029262 0.18758275 0 0 Z " fill="#E2EAFB" transform="translate(183.00390625,151.8671875)"/>
<path d="M0 0 C17.49 0 34.98 0 53 0 C53 0.66 53 1.32 53 2 C56.3 2 59.6 2 63 2 C63.33 1.34 63.66 0.68 64 0 C83.14 0 102.28 0 122 0 C122 0.66 122 1.32 122 2 C112.1 2.33 102.2 2.66 92 3 C92 3.33 92 3.66 92 4 C81.15154996 4.17717463 70.30299154 4.3431156 59.45415306 4.49477577 C54.41643441 4.56555179 49.37883437 4.64017459 44.34130859 4.72363281 C39.4784909 4.80405431 34.6156222 4.87431332 29.75255203 4.93757248 C27.89859242 4.96346643 26.04467992 4.99300218 24.19083786 5.02626419 C21.59128675 5.07227956 18.99186847 5.10526297 16.39208984 5.13525391 C15.62819946 5.1517952 14.86430908 5.16833649 14.07727051 5.18537903 C9.65306971 5.22042942 6.10884681 4.6457776 2 3 C2 2.34 2 1.68 2 1 C1.34 0.67 0.68 0.34 0 0 Z " fill="#95B0F2" transform="translate(56,160)"/>
<path d="M0 0 C4.62 0 9.24 0 14 0 C13.67 0.99 13.34 1.98 13 3 C18.94 3 24.88 3 31 3 C31 3.66 31 4.32 31 5 C39.91 5.66 48.82 6.32 58 7 C58 6.01 58 5.02 58 4 C49.585 4.495 49.585 4.495 41 5 C41 4.34 41 3.68 41 3 C47.6 3 54.2 3 61 3 C60.67 5.64 60.34 8.28 60 11 C58.68 11 57.36 11 56 11 C56 10.01 56 9.02 56 8 C52.04 8 48.08 8 44 8 C44 8.99 44 9.98 44 11 C35.75 11 27.5 11 19 11 C19.66 9.68 20.32 8.36 21 7 C21.66 7 22.32 7 23 7 C23 6.34 23 5.68 23 5 C15.41 5 7.82 5 0 5 C0 3.35 0 1.7 0 0 Z " fill="#B3C7F5" transform="translate(65,148)"/>
<path d="M0 0 C7.26 0 14.52 0 22 0 C22 0.66 22 1.32 22 2 C21.34 2 20.68 2 20 2 C19.67 2.99 19.34 3.98 19 5 C30.55 5.33 42.1 5.66 54 6 C54 6.66 54 7.32 54 8 C58.95 8.33 63.9 8.66 69 9 C69 9.33 69 9.66 69 10 C55.14 10 41.28 10 27 10 C27 9.67 27 9.34 27 9 C32.28 9 37.56 9 43 9 C43 8.34 43 7.68 43 7 C42.44403137 7.16455185 41.88806274 7.3291037 41.31524658 7.49864197 C38.77143883 8.04949407 36.55745302 8.08085121 33.95605469 8.02172852 C32.95531921 8.00163223 31.95458374 7.98153595 30.92352295 7.96083069 C29.85047913 7.93379562 28.7774353 7.90676056 27.671875 7.87890625 C26.56773254 7.85529526 25.46359009 7.83168427 24.32598877 7.80735779 C20.80052569 7.73080472 17.27528688 7.64674399 13.75 7.5625 C11.35938596 7.50927098 8.96876099 7.45653063 6.578125 7.40429688 C0.71861133 7.27520082 -5.14073585 7.13994084 -11 7 C-11.33 5.68 -11.66 4.36 -12 3 C-1.605 2.505 -1.605 2.505 9 2 C6.03 1.67 3.06 1.34 0 1 C0 0.67 0 0.34 0 0 Z " fill="#EEF2FC" transform="translate(66,153)"/>
<path d="M0 0 C1.98 0 3.96 0 6 0 C6 0.66 6 1.32 6 2 C10.95 2.33 15.9 2.66 21 3 C21 3.66 21 4.32 21 5 C22.98 5 24.96 5 27 5 C26.67 5.99 26.34 6.98 26 8 C20.39 7.67 14.78 7.34 9 7 C9 7.66 9 8.32 9 9 C17.91 9 26.82 9 36 9 C36 9.66 36 10.32 36 11 C22.14 11 8.28 11 -6 11 C-5.34 8.69 -4.68 6.38 -4 4 C-7.63 4 -11.26 4 -15 4 C-14.67 3.34 -14.34 2.68 -14 2 C-9.38 2 -4.76 2 0 2 C0 1.34 0 0.68 0 0 Z " fill="#99AFF3" transform="translate(71,136)"/>
<path d="M0 0 C11.88 0 23.76 0 36 0 C36 1.65 36 3.3 36 5 C22.05055679 6.79881604 8.36659229 7.25117378 -5.6875 7.125 C-7.67252144 7.11493282 -9.65754792 7.10581368 -11.64257812 7.09765625 C-16.4285138 7.07597862 -21.21419831 7.04166304 -26 7 C-26.042721 5.33388095 -26.04063832 3.66617115 -26 2 C-25 1 -25 1 -22.49609375 0.90234375 C-20.98208984 0.91974609 -20.98208984 0.91974609 -19.4375 0.9375 C-18.42558594 0.94652344 -17.41367188 0.95554688 -16.37109375 0.96484375 C-15.19740234 0.98224609 -15.19740234 0.98224609 -14 1 C-13.67 1.66 -13.34 2.32 -13 3 C-13.99 3.33 -14.98 3.66 -16 4 C-8.41 4 -0.82 4 7 4 C6.34 3.67 5.68 3.34 5 3 C5 2.34 5 1.68 5 1 C3.35 1 1.7 1 0 1 C0 0.67 0 0.34 0 0 Z " fill="#87A7F4" transform="translate(167,128)"/>
<path d="M0 0 C5.28360659 -0.02482718 10.56717878 -0.04292007 15.85083008 -0.05493164 C17.6460835 -0.05994225 19.44133287 -0.06675255 21.23657227 -0.07543945 C23.82569378 -0.0876489 26.41476107 -0.09326116 29.00390625 -0.09765625 C30.19651817 -0.10539818 30.19651817 -0.10539818 31.41322327 -0.11329651 C36.04898956 -0.11375707 40.4268467 0.23115689 45 1 C45 1.33 45 1.66 45 2 C42.69 2 40.38 2 38 2 C37.67 2.66 37.34 3.32 37 4 C33.7 4 30.4 4 27 4 C26.34 5.98 25.68 7.96 25 10 C22.69 10 20.38 10 18 10 C18.33 9.01 18.66 8.02 19 7 C6.79 7 -5.42 7 -18 7 C-18 6.34 -18 5.68 -18 5 C-9.09 5 -0.18 5 9 5 C9 4.34 9 3.68 9 3 C6.03 2.34 3.06 1.68 0 1 C0 0.67 0 0.34 0 0 Z " fill="#DBE4FB" transform="translate(154,149)"/>
<path d="M0 0 C-0.33 2.31 -0.66 4.62 -1 7 C-3.31 7 -5.62 7 -8 7 C-8 7.66 -8 8.32 -8 9 C-6.02 9 -4.04 9 -2 9 C-2 9.33 -2 9.66 -2 10 C-7.94 10 -13.88 10 -20 10 C-20 9.01 -20 8.02 -20 7 C-25.61 7 -31.22 7 -37 7 C-37 6.67 -37 6.34 -37 6 C-31.06 6 -25.12 6 -19 6 C-19 4.68 -19 3.36 -19 2 C-21.97 1.505 -21.97 1.505 -25 1 C-25 0.67 -25 0.34 -25 0 C-16.82280536 -1.48676266 -8.14666136 -1.81036919 0 0 Z " fill="#DCE5FB" transform="translate(202,135)"/>
<path d="M0 0 C5.61 0 11.22 0 17 0 C17 0.99 17 1.98 17 3 C20.96 3 24.92 3 29 3 C29 3.66 29 4.32 29 5 C30.98 5 32.96 5 35 5 C35 5.33 35 5.66 35 6 C32.69 6 30.38 6 28 6 C28 5.34 28 4.68 28 4 C26.72382813 4.17402344 25.44765625 4.34804687 24.1328125 4.52734375 C16.05694976 5.33493002 7.969657 4.84949238 -0.125 4.5625 C-1.76560556 4.50916411 -3.40623062 4.45642492 -5.046875 4.40429688 C-9.03150829 4.27640934 -13.01579056 4.14045055 -17 4 C-17 4.66 -17 5.32 -17 6 C-15.35 6.33 -13.7 6.66 -12 7 C-12 7.33 -12 7.66 -12 8 C-16.95 8 -21.9 8 -27 8 C-27 6.35 -27 4.7 -27 3 C-11.655 2.505 -11.655 2.505 4 2 C2.68 1.34 1.36 0.68 0 0 Z " fill="#90AAF3" transform="translate(165,142)"/>
<path d="M0 0 C17.49 0 34.98 0 53 0 C53 0.66 53 1.32 53 2 C41.64753762 2.86612792 30.38380184 3.11858127 19 3 C19 3.66 19 4.32 19 5 C7.47835991 5.3690205 7.47835991 5.3690205 2 3 C2 2.34 2 1.68 2 1 C1.34 0.67 0.68 0.34 0 0 Z " fill="#B0C5F4" transform="translate(56,160)"/>
<path d="M0 0 C4.95 0 9.9 0 15 0 C15 1.32 15 2.64 15 4 C19.95 4 24.9 4 30 4 C30.33 2.68 30.66 1.36 31 0 C34.63 0 38.26 0 42 0 C41.34 1.98 40.68 3.96 40 6 C28.45 6 16.9 6 5 6 C4.67 5.01 4.34 4.02 4 3 C1.98491642 2.26676204 1.98491642 2.26676204 0 2 C0 1.34 0 0.68 0 0 Z " fill="#708FF1" transform="translate(85,129)"/>
<path d="M0 0 C0.76417236 -0.00451172 1.52834473 -0.00902344 2.31567383 -0.01367188 C7.22862357 -0.00074731 11.94821665 0.43088935 16.8125 1.125 C16.8125 1.455 16.8125 1.785 16.8125 2.125 C10.8725 2.125 4.9325 2.125 -1.1875 2.125 C-1.1875 2.785 -1.1875 3.445 -1.1875 4.125 C-0.1975 3.795 0.7925 3.465 1.8125 3.125 C4.20740986 3.05529948 6.60417691 3.04051997 9 3.0625 C10.27230469 3.07152344 11.54460937 3.08054688 12.85546875 3.08984375 C14.31919922 3.10724609 14.31919922 3.10724609 15.8125 3.125 C15.8125 4.115 15.8125 5.105 15.8125 6.125 C6.40036748 6.25373737 -2.80837413 5.92322348 -12.1875 5.125 C-11.8575 4.135 -11.5275 3.145 -11.1875 2.125 C-17.1275 2.125 -23.0675 2.125 -29.1875 2.125 C-29.1875 1.795 -29.1875 1.465 -29.1875 1.125 C-19.45942925 0.51495301 -9.74928441 0.02334925 0 0 Z " fill="#F0F4FC" transform="translate(107.1875,148.875)"/>
<path d="M0 0 C4.62 0 9.24 0 14 0 C13.67 0.99 13.34 1.98 13 3 C18.94 3 24.88 3 31 3 C30.67 4.65 30.34 6.3 30 8 C27.36 8 24.72 8 22 8 C22.33 7.01 22.66 6.02 23 5 C15.41 5 7.82 5 0 5 C0 3.35 0 1.7 0 0 Z " fill="#8EA8F2" transform="translate(65,148)"/>
<path d="M0 0 C3.63 0 7.26 0 11 0 C11 0.66 11 1.32 11 2 C19.58 2 28.16 2 37 2 C37 2.33 37 2.66 37 3 C28.03569588 4.08893933 18.90344794 4.92506983 10 3 C10 3.66 10 4.32 10 5 C16.6 5 23.2 5 30 5 C30 5.33 30 5.66 30 6 C19.77 6 9.54 6 -1 6 C-0.67 4.02 -0.34 2.04 0 0 Z " fill="#ECF1FC" transform="translate(126,151)"/>
<path d="M0 0 C1.98 0 3.96 0 6 0 C6 0.66 6 1.32 6 2 C10.95 2.33 15.9 2.66 21 3 C21 3.66 21 4.32 21 5 C22.98 5 24.96 5 27 5 C27 5.33 27 5.66 27 6 C16.77 6 6.54 6 -4 6 C-4 5.34 -4 4.68 -4 4 C-7.63 4 -11.26 4 -15 4 C-14.67 3.34 -14.34 2.68 -14 2 C-9.38 2 -4.76 2 0 2 C0 1.34 0 0.68 0 0 Z " fill="#CBD9F8" transform="translate(71,136)"/>
<path d="M0 0 C5.94 0 11.88 0 18 0 C18 0.66 18 1.32 18 2 C19.32 2.33 20.64 2.66 22 3 C22 3.66 22 4.32 22 5 C12.76 5 3.52 5 -6 5 C-5.34 4.01 -4.68 3.02 -4 2 C-2.68 2 -1.36 2 0 2 C0 1.34 0 0.68 0 0 Z " fill="#DEE8FB" transform="translate(67,129)"/>
<path d="M0 0 C6.27 0.66 12.54 1.32 19 2 C19 2.33 19 2.66 19 3 C7.76789672 5.0422006 -3.69585125 3.86479827 -15 3 C-15 3.66 -15 4.32 -15 5 C-16.89551022 5.05441656 -18.7914792 5.09298035 -20.6875 5.125 C-21.74324219 5.14820313 -22.79898438 5.17140625 -23.88671875 5.1953125 C-27.02251859 4.99858729 -29.17645373 4.33057654 -32 3 C-32 2.67 -32 2.34 -32 2 C-21.44 2 -10.88 2 0 2 C0 1.34 0 0.68 0 0 Z " fill="#CAD6F8" transform="translate(178,160)"/>
<path d="M0 0 C0 0.66 0 1.32 0 2 C0.99 2.33 1.98 2.66 3 3 C3 3.33 3 3.66 3 4 C-5.58 4 -14.16 4 -23 4 C-22.34 3.34 -21.68 2.68 -21 2 C-20.01 2 -19.02 2 -18 2 C-18 1.34 -18 0.68 -18 0 C-12.00223894 -1.49944026 -5.99776106 -1.49944026 0 0 Z " fill="#F6F8FD" transform="translate(172,129)"/>
<path d="M0 0 C1.15242188 0.01804688 2.30484375 0.03609375 3.4921875 0.0546875 C4.36101562 0.07789063 5.22984375 0.10109375 6.125 0.125 C6.125 0.455 6.125 0.785 6.125 1.125 C3.815 1.455 1.505 1.785 -0.875 2.125 C1.6 2.62 1.6 2.62 4.125 3.125 C3.795 3.785 3.465 4.445 3.125 5.125 C-5.455 5.125 -14.035 5.125 -22.875 5.125 C-23.205 4.465 -23.535 3.805 -23.875 3.125 C-23.15054688 3.07601562 -22.42609375 3.02703125 -21.6796875 2.9765625 C-20.22949219 2.86441406 -20.22949219 2.86441406 -18.75 2.75 C-17.79867187 2.68039063 -16.84734375 2.61078125 -15.8671875 2.5390625 C-12.83604916 2.22064011 -12.83604916 2.22064011 -9.9375 1.09375 C-6.46478894 -0.00476064 -3.63186135 -0.07411962 0 0 Z " fill="#EEF3FC" transform="translate(166.875,155.875)"/>
<path d="M0 0 C14.52 0 29.04 0 44 0 C43.67 1.65 43.34 3.3 43 5 C40.69 5 38.38 5 36 5 C36.33 4.01 36.66 3.02 37 2 C24.79 2 12.58 2 0 2 C0 1.34 0 0.68 0 0 Z " fill="#8BA7F2" transform="translate(136,154)"/>
<path d="M0 0 C-0.33 1.32 -0.66 2.64 -1 4 C-6.94 4 -12.88 4 -19 4 C-19 3.34 -19 2.68 -19 2 C-21.97 1.505 -21.97 1.505 -25 1 C-25 0.67 -25 0.34 -25 0 C-16.82280536 -1.48676266 -8.14666136 -1.81036919 0 0 Z " fill="#DDE7FB" transform="translate(202,135)"/>
<path d="M0 0 C4.95 0 9.9 0 15 0 C14.67 1.98 14.34 3.96 14 6 C15.98 6 17.96 6 20 6 C20 6.33 20 6.66 20 7 C17.69 7 15.38 7 13 7 C13 6.34 13 5.68 13 5 C8.05 5 3.1 5 -2 5 C-1.34 3.35 -0.68 1.7 0 0 Z " fill="#E0E9FB" transform="translate(127,129)"/>
<path d="M0 0 C3.63 0 7.26 0 11 0 C10.67 1.65 10.34 3.3 10 5 C3.07 5 -3.86 5 -11 5 C-10.01 3.68 -9.02 2.36 -8 1 C-5.36 1.33 -2.72 1.66 0 2 C0 1.34 0 0.68 0 0 Z " fill="#C6D4F7" transform="translate(95,154)"/>
<path d="M0 0 C2.31 0 4.62 0 7 0 C6.67 1.65 6.34 3.3 6 5 C2.04172765 5.05785647 -1.9164367 5.09354717 -5.875 5.125 C-7.00292969 5.14175781 -8.13085938 5.15851563 -9.29296875 5.17578125 C-10.90751953 5.18544922 -10.90751953 5.18544922 -12.5546875 5.1953125 C-14.04718018 5.21102295 -14.04718018 5.21102295 -15.56982422 5.22705078 C-18 5 -18 5 -20 3 C-13.4 3 -6.8 3 0 3 C0 2.01 0 1.02 0 0 Z " fill="#6589F0" transform="translate(177,136)"/>
<path d="M0 0 C10.8029818 -0.34910893 21.28712612 0.73300752 32 2 C32 2.33 32 2.66 32 3 C21.77 3 11.54 3 1 3 C0.67 2.01 0.34 1.02 0 0 Z " fill="#D4DEF9" transform="translate(53,153)"/>
<path d="M0 0 C3.96 0 7.92 0 12 0 C12 0.66 12 1.32 12 2 C13.98 2 15.96 2 18 2 C18 2.66 18 3.32 18 4 C12.06 4 6.12 4 0 4 C0 2.68 0 1.36 0 0 Z " fill="#D5E1FB" transform="translate(185,129)"/>
<path d="M0 0 C4.62 0 9.24 0 14 0 C14 1.32 14 2.64 14 4 C9.05 4 4.1 4 -1 4 C-0.67 2.68 -0.34 1.36 0 0 Z " fill="#ECF2FC" transform="translate(101,129)"/>
<path d="M0 0 C1.51400391 0.01740234 1.51400391 0.01740234 3.05859375 0.03515625 C4.07050781 0.04417969 5.08242187 0.05320313 6.125 0.0625 C7.29869141 0.07990234 7.29869141 0.07990234 8.49609375 0.09765625 C8.82609375 0.75765625 9.15609375 1.41765625 9.49609375 2.09765625 C7.84609375 2.42765625 6.19609375 2.75765625 4.49609375 3.09765625 C4.16609375 4.08765625 3.83609375 5.07765625 3.49609375 6.09765625 C1.18609375 6.09765625 -1.12390625 6.09765625 -3.50390625 6.09765625 C-3.54662725 4.4315372 -3.54454457 2.7638274 -3.50390625 1.09765625 C-2.50390625 0.09765625 -2.50390625 0.09765625 0 0 Z " fill="#708FF1" transform="translate(144.50390625,128.90234375)"/>
<path d="M0 0 C5.94 0 11.88 0 18 0 C18 0.99 18 1.98 18 3 C8.595 3.495 8.595 3.495 -1 4 C-0.67 2.68 -0.34 1.36 0 0 Z " fill="#E3EBFB" transform="translate(98,140)"/>
<path d="M0 0 C5.61 0 11.22 0 17 0 C16.67 1.32 16.34 2.64 16 4 C10.39 3.67 4.78 3.34 -1 3 C-0.67 2.01 -0.34 1.02 0 0 Z " fill="#E5ECFB" transform="translate(122,140)"/>
<path d="M0 0 C7.26 0 14.52 0 22 0 C22 0.33 22 0.66 22 1 C20.35 1 18.7 1 17 1 C17 1.66 17 2.32 17 3 C15.10448978 3.05441656 13.2085208 3.09298035 11.3125 3.125 C10.25675781 3.14820313 9.20101562 3.17140625 8.11328125 3.1953125 C4.97748141 2.99858729 2.82354627 2.33057654 0 1 C0 0.67 0 0.34 0 0 Z " fill="#DFE7FB" transform="translate(146,162)"/>
<path d="M0 0 C2.97 0 5.94 0 9 0 C7.68 2.64 6.36 5.28 5 8 C3.68 8 2.36 8 1 8 C0.67 5.36 0.34 2.72 0 0 Z " fill="#7090F0" transform="translate(115,136)"/>
<path d="M0 0 C3.63 0 7.26 0 11 0 C11 0.99 11 1.98 11 3 C11.66 3.33 12.32 3.66 13 4 C8.38 4 3.76 4 -1 4 C-0.67 2.68 -0.34 1.36 0 0 Z " fill="#DFE8FB" transform="translate(146,137)"/>
<path d="M0 0 C1.98 0 3.96 0 6 0 C6 0.66 6 1.32 6 2 C6.99 2.33 7.98 2.66 9 3 C9 3.66 9 4.32 9 5 C5.04 5 1.08 5 -3 5 C-2.67 4.01 -2.34 3.02 -2 2 C-1.34 2 -0.68 2 0 2 C0 1.34 0 0.68 0 0 Z " fill="#6C8DEF" transform="translate(71,136)"/>
<path d="M0 0 C6.27 0 12.54 0 19 0 C17.68 0.33 16.36 0.66 15 1 C15 1.66 15 2.32 15 3 C13.25034642 3.05429959 11.50020213 3.09292823 9.75 3.125 C8.77546875 3.14820313 7.8009375 3.17140625 6.796875 3.1953125 C3.9803502 2.99862781 2.39050964 2.44568916 0 1 C0 0.67 0 0.34 0 0 Z " fill="#E3EAFB" transform="translate(60,162)"/>
<path d="M0 0 C0 0.66 0 1.32 0 2 C-5.94 2 -11.88 2 -18 2 C-18 1.34 -18 0.68 -18 0 C-12.00223894 -1.49944026 -5.99776106 -1.49944026 0 0 Z " fill="#E0E9FB" transform="translate(172,129)"/>
<path d="M0 0 C4.29 0.33 8.58 0.66 13 1 C13 1.66 13 2.32 13 3 C10.23547967 4.38226016 7.9538637 4.09525387 4.875 4.0625 C3.77929688 4.05347656 2.68359375 4.04445312 1.5546875 4.03515625 C0.29011719 4.01775391 0.29011719 4.01775391 -1 4 C-0.67 2.68 -0.34 1.36 0 0 Z " fill="#EBF0FC" transform="translate(58,135)"/>
<path d="M0 0 C12.66970387 -0.18451025 12.66970387 -0.18451025 18 1 C18 1.66 18 2.32 18 3 C12.06 2.67 6.12 2.34 0 2 C0 1.34 0 0.68 0 0 Z " fill="#B3C9F7" transform="translate(183,139)"/>
<path d="M0 0 C3.96 0 7.92 0 12 0 C12 0.99 12 1.98 12 3 C8.04 3 4.08 3 0 3 C0 2.01 0 1.02 0 0 Z " fill="#E6EDFB" transform="translate(165,136)"/>
<path d="M0 0 C5.94 0 11.88 0 18 0 C18 0.99 18 1.98 18 3 C15.36 3 12.72 3 10 3 C10 2.34 10 1.68 10 1 C6.7 1 3.4 1 0 1 C0 0.67 0 0.34 0 0 Z " fill="#B2C5F6" transform="translate(147,136)"/>
<path d="M0 0 C0 1.65 0 3.3 0 5 C-1.32 5 -2.64 5 -4 5 C-4 4.01 -4 3.02 -4 2 C-6.31 2 -8.62 2 -11 2 C-11 1.67 -11 1.34 -11 1 C-3.375 0 -3.375 0 0 0 Z " fill="#9EB7F3" transform="translate(109,154)"/>
<path d="M0 0 C2.31 0 4.62 0 7 0 C6.67 1.32 6.34 2.64 6 4 C4.02 4 2.04 4 0 4 C0 2.68 0 1.36 0 0 Z " fill="#7695F1" transform="translate(140,136)"/>
<path d="M0 0 C1.98 0 3.96 0 6 0 C6 0.66 6 1.32 6 2 C6.66 2.33 7.32 2.66 8 3 C4.7 3 1.4 3 -2 3 C-1.34 2.67 -0.68 2.34 0 2 C0 1.34 0 0.68 0 0 Z " fill="#A9BDF5" transform="translate(71,136)"/>
<path d="M0 0 C2.97 0.33 5.94 0.66 9 1 C9.33 1.99 9.66 2.98 10 4 C7.36 3.67 4.72 3.34 2 3 C2 2.34 2 1.68 2 1 C1.34 0.67 0.68 0.34 0 0 Z " fill="#E6ECFB" transform="translate(116,147)"/>
<path d="M0 0 C1.98 0 3.96 0 6 0 C5.34 1.32 4.68 2.64 4 4 C2.68 4 1.36 4 0 4 C0 2.68 0 1.36 0 0 Z " fill="#8CA6F2" transform="translate(116,140)"/>
<path d="M0 0 C2.31 0 4.62 0 7 0 C6.67 0.99 6.34 1.98 6 3 C4.02 3 2.04 3 0 3 C0 2.01 0 1.02 0 0 Z " fill="#7898F2" transform="translate(177,136)"/>
</svg>
